<svg xmlns="http://www.w3.org/2000/svg" version="1.1" xmlns:xlink="http://www.w3.org/1999/xlink" xmlns:svgjs="http://svgjs.dev/svgjs" style="overflow: hidden; height: 85vh;" viewBox="0 0 1920 1080" class="overflow-hidden rounded-md drop-shadow-lg transition duration-300"><rect width="1920" height="1080" fill="#2e1b85"/><g clip-path="url(&quot;#SvgjsClipPath1762&quot;)"><g transform="matrix(-0.08021994480574442,-1.1471986577987978,1.1471986577987978,-0.08021994480574442,369.5845789681322,1633.7177274049848)"><path d="M0,-1080C-6.490881484234312,-982.5856530872804,-24.3148827713489,-722.8848417100753,-38.945288905405874,-495.5139185236829C-53.57569503946285,-268.1429953372904,-95.67156161301983,67.27177608410193,-87.78243680434184,284.22553911835485C-79.89331199566385,501.17930215260776,-19.85691812557725,612.1393629832976,8.389459946662086,806.2086596818345C36.635838018901424,1000.2779563803715,83.09407495353784,1223.0094292565493,81.69583162909416,1448.6413193095768C80.29758830465047,1674.2732093626043,13.61597193818236,2041.4402198849295,0,2160L 1920 2160 L 1920 -1080 Z" fill="url(&quot;#SvgjsLinearGradient1755&quot;)"/><path d="M274.2857142857143,-1080C261.7365794507094,-1004.0982916730671,198.25718867387332,-768.8039752286413,198.990905275685,-624.5897500384028C199.7246218774967,-480.37552484816433,270.31551221762095,-366.68211973597533,278.6880138965844,-214.71464885856898C287.0605155755478,-62.747177981162594,235.6236363496354,118.16859696907738,249.22591534946565,287.2150752260354C262.8281943492959,456.26155348299346,370.67772046169654,656.8397750277729,360.3016878955659,799.5642206831792C349.9256553294353,942.2886663385855,193.20631917580957,992.4560678599536,186.96971995268188,1143.5617491584728C180.7331207295542,1294.6674304569922,308.3294268346277,1536.7919333340403,322.88209255679976,1706.198308474295C337.4347582789718,1875.6046836145495,282.38511066422853,2084.366384745716,274.2857142857143,2160L 1920 2160 L 1920 -1080 Z" fill="url(&quot;#SvgjsLinearGradient1756&quot;)"/><path d="M548.5714285714286,-1080C548.9640340336209,-1016.5120057083507,558.4894375466597,-837.8686967676811,550.9270613445826,-699.072034250104C543.3646851425056,-560.275371732527,518.2900911750587,-397.6624470416742,503.19717135896616,-247.22002489453817C488.10425154287356,-96.77760274740211,437.5821489366212,68.0447467437896,460.3695424480271,203.58249863271232C483.15693595943304,339.12025052163506,629.8950174341267,456.2223580605948,639.9215324274016,566.0064864389981C649.9480474206766,675.7906148174013,523.4800264241322,730.8379417174206,520.528632407677,862.287268903132C517.5772383912218,993.7365960888435,625.1775303722391,1196.9629034544816,622.2131683286707,1354.702449553267C619.2488062851023,1512.4419956520521,515.0160834391403,1674.5082870880544,502.74246014626664,1808.7245454958434C490.46883685339293,1942.9408039036323,540.9332671672349,2101.454090915974,548.5714285714286,2160L 1920 2160 L 1920 -1080 Z" fill="url(&quot;#SvgjsLinearGradient1757&quot;)"/><path d="M822.8571428571428,-1080C815.8218011196631,-963.9543068221847,774.7763060685207,-615.4775067737796,780.6450924322643,-383.725840933108C786.5138787960078,-151.97417509243633,843.8991837617489,110.88576681085917,858.0698610396039,310.5099950440299C872.2405383174589,510.1342232772006,869.9526910469204,625.9433265549967,865.6691560993945,814.0195284659164C861.3856211518686,1002.0957303768362,839.5039868948234,1214.637127920534,832.368651354448,1438.967206509548C825.2333158140727,1663.297285098562,824.4423942733604,2039.8278677515914,822.8571428571428,2160L 1920 2160 L 1920 -1080 Z" fill="url(&quot;#SvgjsLinearGradient1758&quot;)"/><path d="M1097.142857142857,-1080C1096.7681999663623,-958.0805401881454,1107.5099020321397,-563.0756572412187,1094.894914083889,-348.4832411288725C1082.2799261356383,-133.8908250165264,1017.6577059235024,14.808038833951628,1021.4529294533525,207.55449667407686C1025.2481529832025,400.3009545142021,1110.3458797344747,578.5150104630369,1117.6662552629896,807.9955059118788C1124.9866307915045,1037.4760013607206,1068.7957489777964,1359.1033870191077,1065.375182624441,1584.437469367128C1061.9546162710858,1809.7715517151482,1091.848244723121,2064.072911561188,1097.142857142857,2160L 1920 2160 L 1920 -1080 Z" fill="url(&quot;#SvgjsLinearGradient1759&quot;)"/><path d="M1371.4285714285716,-1080C1381.378985571465,-942.0629881015726,1431.0075639004542,-528.0244029235549,1431.1310562859317,-252.37792860943583C1431.254548671409,23.268545704683305,1397.8632889079363,302.40095838950396,1372.1695257414365,573.8788458847148C1346.4757625749367,845.3567333799256,1277.0919696724095,1112.1358706759481,1276.968477286932,1376.489396361829C1276.8449849014546,1640.8429220477099,1355.6852224049649,2029.4148993936383,1371.4285714285716,2160L 1920 2160 L 1920 -1080 Z" fill="url(&quot;#SvgjsLinearGradient1760&quot;)"/><path d="M1645.7142857142856,-1080C1642.169341766317,-941.9645085672526,1628.5359513652731,-517.4667430318225,1624.4446220264751,-251.7870514035154C1620.3532926876771,13.892640224791734,1626.4932964844363,245.7657811355965,1621.166309681498,514.0781497698426C1615.8393228785596,782.3905184040888,1588.3913718700474,1083.7668520302686,1592.4827012088454,1358.0871604019615C1596.5740305476434,1632.4074687736543,1636.842354963379,2026.3478600669937,1645.7142857142856,2160L 1920 2160 L 1920 -1080 Z" fill="url(&quot;#SvgjsLinearGradient1761&quot;)"/></g></g><defs><linearGradient x1="0.1" y1="0" x2="0" y2="1" id="SvgjsLinearGradient1755"><stop stop-color="#2e1b85" offset="0"/><stop stop-color="#1c1b85" offset="0"/></linearGradient><linearGradient x1="0.1" y1="0" x2="0" y2="1" id="SvgjsLinearGradient1756"><stop stop-color="#3f25b7" offset="0"/><stop stop-color="#2725b7" offset="0.14285714285714285"/></linearGradient><linearGradient x1="0.1" y1="0" x2="0" y2="1" id="SvgjsLinearGradient1757"><stop stop-color="#5b40d8" offset="0"/><stop stop-color="#4240d8" offset="0.2857142857142857"/></linearGradient><linearGradient x1="0.1" y1="0" x2="0" y2="1" id="SvgjsLinearGradient1758"><stop stop-color="#8672e2" offset="0"/><stop stop-color="#7372e2" offset="0.42857142857142855"/></linearGradient><linearGradient x1="0.1" y1="0" x2="0" y2="1" id="SvgjsLinearGradient1759"><stop stop-color="#b1a4ec" offset="0"/><stop stop-color="#a5a4ec" offset="0.5714285714285714"/></linearGradient><linearGradient x1="0.1" y1="0" x2="0" y2="1" id="SvgjsLinearGradient1760"><stop stop-color="#dcd6f7" offset="0"/><stop stop-color="#d6d6f7" offset="0.7142857142857143"/></linearGradient><linearGradient x1="0.1" y1="0" x2="0" y2="1" id="SvgjsLinearGradient1761"><stop stop-color="#ffffff" offset="0"/><stop stop-color="#ffffff" offset="0.8571428571428571"/></linearGradient><clipPath id="SvgjsClipPath1762"><rect width="1920" height="1080"/></clipPath></defs></svg>